<?xml version="1.0" encoding="UTF-8"?>
<svg version="1.1" xmlns="http://www.w3.org/2000/svg" width="512" height="512">
<path d="M0 0 C0.78364929 0.00304138 1.56729858 0.00608276 2.37469482 0.00921631 C14.70549999 0.07976764 26.29912319 0.95143462 38.1875 4.4375 C38.9192041 4.63585449 39.6509082 4.83420898 40.40478516 5.03857422 C59.12768766 10.16931075 76.78549161 19.38732047 91.1875 32.4375 C91.74373047 32.94007324 92.29996094 33.44264648 92.87304688 33.96044922 C117.38692689 56.48766599 131.77755432 88.89670706 133.36450195 122.14599609 C133.67719058 141.61242048 133.23955174 160.2950487 129.1875 179.4375 C128.87401611 180.92950928 128.87401611 180.92950928 128.55419922 182.45166016 C120.5085287 219.54611863 104.76009447 254.75116534 85.875 287.5390625 C85.32521484 288.49723877 84.77542969 289.45541504 84.20898438 290.44262695 C82.87023095 292.77525928 81.52971398 295.10685778 80.1875 297.4375 C81.3031282 297.42861755 82.41875641 297.41973511 83.56819153 297.4105835 C94.11618339 297.32926201 104.66411108 297.26942181 115.21234608 297.23025131 C120.63445482 297.20943588 126.05630913 297.18122914 131.47827148 297.13574219 C136.7173021 297.09206831 141.956089 297.0683175 147.1952877 297.05799103 C149.18744425 297.05063819 151.17958847 297.03628036 153.1716404 297.01457977 C167.00015997 296.87001977 178.69083122 297.02088943 189.18359375 307.17578125 C198.62489491 317.83175273 200.46034956 330.40288239 201.88916016 344.14794922 C202.03500188 345.48815051 202.18162634 346.82826681 202.32896423 348.16830444 C202.72326102 351.77501479 203.10657323 355.38281368 203.48768663 358.99093771 C203.89070845 362.78915641 204.30367394 366.58629483 204.71542358 370.38357544 C205.40538443 376.75948737 206.08879548 383.13607235 206.76757812 389.51318359 C207.72079028 398.46833949 208.68661406 407.422103 209.65460896 416.37567115 C210.3291271 422.61945474 211.00044362 428.86358321 211.67127562 435.10776377 C211.83273359 436.61032422 211.99429599 438.11287345 212.15596437 439.61541128 C212.61744902 443.90499771 213.07691268 448.19479101 213.53325081 452.48492813 C213.73574894 454.38494215 213.94007532 456.28476105 214.14448547 458.18457031 C217.33280956 488.27285651 217.33280956 488.27285651 210.0078125 498.26953125 C203.07009417 506.53226446 195.67742695 511.6362168 184.71722603 512.80875492 C180.69431703 512.95144324 176.68882678 512.97165483 172.66430664 512.94543457 C171.11172178 512.95005067 169.5591413 512.95640833 168.00656986 512.96434355 C163.76554725 512.98096276 159.52488705 512.97282448 155.28386354 512.96039867 C150.70027557 512.95132 146.11674837 512.96533185 141.53317261 512.97631836 C132.56396216 512.99407816 123.59488583 512.99027492 114.62567019 512.9786678 C107.3343488 512.96962375 100.0430649 512.96841368 92.7517395 512.97276306 C91.71287002 512.97337599 90.67400053 512.97398893 89.60365015 512.97462043 C87.49301806 512.97589937 85.38238598 512.97719622 83.27175391 512.9785108 C63.49363653 512.98990916 43.7155934 512.97681456 23.9374882 512.95530933 C6.97749403 512.93743904 -9.98239062 512.94054335 -26.94238281 512.95898438 C-46.65110991 512.98040422 -66.35977199 512.98881059 -86.0685091 512.97653532 C-88.17125256 512.97526116 -90.27399603 512.97400368 -92.3767395 512.97276306 C-93.92850865 512.97183741 -93.92850865 512.97183741 -95.51162666 512.97089306 C-102.79177378 512.9674435 -110.07187955 512.97325999 -117.35202026 512.98268127 C-126.22755655 512.993915 -135.10295138 512.9908323 -143.97847152 512.9695583 C-148.50443539 512.9590664 -153.03016366 512.95489426 -157.55612564 512.96815491 C-161.7038414 512.98012328 -165.8511044 512.97344354 -169.99877942 512.9522447 C-171.49459423 512.94779739 -172.99044773 512.95000259 -174.48623741 512.95974785 C-186.65405863 513.03290661 -197.8123622 511.31921493 -206.8125 502.4375 C-214.79542448 492.8217046 -216.52238953 483.57728529 -215.57703209 471.40586472 C-215.24162743 467.95743683 -214.86867585 464.51496217 -214.4831543 461.07177734 C-214.34166962 459.76953217 -214.20018494 458.46728699 -214.05441284 457.12557983 C-213.66882137 453.57918358 -213.27640638 450.03357449 -212.88235831 446.48810911 C-212.55225817 443.51194599 -212.22563759 440.53540516 -211.89901668 437.55885851 C-211.12707071 430.52421158 -210.34966142 423.49018363 -209.56860352 416.45654297 C-208.76755777 409.24220061 -207.97484148 402.02697894 -207.18643445 394.81124532 C-206.50554836 388.58189496 -205.81982493 382.35309007 -205.13025981 376.12469447 C-204.72013561 372.42013116 -204.31163242 368.71541006 -203.90762901 365.0101738 C-198.49507859 315.43934662 -198.49507859 315.43934662 -184.8125 303.4375 C-177.57984964 298.94123813 -171.49923311 297.28811581 -163.02661133 297.32397461 C-161.67996147 297.32375557 -161.67996147 297.32375557 -160.30610657 297.3235321 C-157.33555697 297.32422936 -154.36506991 297.33201303 -151.39453125 297.33984375 C-149.33615656 297.34170859 -147.27778142 297.34313218 -145.21940613 297.34413147 C-139.79919206 297.34795141 -134.37900476 297.35777727 -128.95880127 297.36883545 C-123.42891807 297.37906079 -117.89903055 297.3836315 -112.36914062 297.38867188 C-101.51691532 297.39939997 -90.66470989 297.41647016 -79.8125 297.4375 C-80.14950424 296.84978821 -80.48650848 296.26207642 -80.83372498 295.65655518 C-82.38877183 292.94344017 -83.94243919 290.22953753 -85.49609375 287.515625 C-86.02601929 286.59152832 -86.55594482 285.66743164 -87.10192871 284.71533203 C-119.11499521 228.76921351 -145.83575075 159.64472726 -128.90478516 94.59814453 C-119.69964044 61.22372936 -98.94463724 33.74895825 -68.8125 16.4375 C-47.19828848 5.10049117 -24.3163919 -0.20184156 0 0 Z " fill="#FEBA24" transform="translate(255.8125,-0.4375)"/>
<path d="M0 0 C0.78364929 0.00304138 1.56729858 0.00608276 2.37469482 0.00921631 C14.70549999 0.07976764 26.29912319 0.95143462 38.1875 4.4375 C38.9192041 4.63585449 39.6509082 4.83420898 40.40478516 5.03857422 C59.12768766 10.16931075 76.78549161 19.38732047 91.1875 32.4375 C91.74373047 32.94007324 92.29996094 33.44264648 92.87304688 33.96044922 C117.38692689 56.48766599 131.77755432 88.89670706 133.36450195 122.14599609 C133.67719058 141.61242048 133.23955174 160.2950487 129.1875 179.4375 C128.87401611 180.92950928 128.87401611 180.92950928 128.55419922 182.45166016 C119.66334783 223.44281392 101.26522779 261.43835642 80.1875 297.4375 C79.5275 297.4375 78.8675 297.4375 78.1875 297.4375 C77.91599121 298.16549805 77.64448242 298.89349609 77.36474609 299.64355469 C76.22468977 302.34923791 74.92283 304.6649033 73.3515625 307.140625 C72.78824219 308.02967529 72.22492188 308.91872559 71.64453125 309.8347168 C71.03996094 310.77613525 70.43539062 311.71755371 69.8125 312.6875 C69.18472656 313.66823486 68.55695313 314.64896973 67.91015625 315.65942383 C62.25308169 324.43860356 56.33653704 332.99738296 50.1875 341.4375 C49.61999023 342.21754395 49.05248047 342.99758789 48.46777344 343.80126953 C38.4778311 357.50402223 28.28479335 370.977782 17.46044922 384.03344727 C11.91015618 390.73757286 6.52535443 397.56365072 1.1875 404.4375 C-2.47950337 403.21516554 -3.30816262 401.88733091 -5.6875 398.875 C-6.48414063 397.87597656 -7.28078125 396.87695312 -8.1015625 395.84765625 C-8.53629883 395.29867676 -8.97103516 394.74969727 -9.41894531 394.18408203 C-10.87574047 392.35823891 -12.35276915 390.55056834 -13.8359375 388.74609375 C-21.1830157 379.79962094 -28.29890822 370.69956986 -35.27441406 361.4609375 C-36.67555392 359.61766017 -38.09493838 357.79084734 -39.5234375 355.96875 C-50.81495943 341.42571064 -60.7331707 325.83195419 -70.8125 310.4375 C-71.18985291 309.8632428 -71.56720581 309.2889856 -71.95599365 308.69732666 C-72.96936564 307.1518843 -73.9751905 305.6015006 -74.98046875 304.05078125 C-75.53371826 303.19911377 -76.08696777 302.34744629 -76.65698242 301.4699707 C-77.8125 299.4375 -77.8125 299.4375 -77.8125 297.4375 C-78.4725 297.4375 -79.1325 297.4375 -79.8125 297.4375 C-114.57416258 237.48218296 -147.29793593 165.26225384 -128.90478516 94.59814453 C-119.69964044 61.22372936 -98.94463724 33.74895825 -68.8125 16.4375 C-47.19828848 5.10049117 -24.3163919 -0.20184156 0 0 Z " fill="#FE4A4A" transform="translate(255.8125,-0.4375)"/>
<path d="M0 0 C0.93869665 0.00291284 1.87739329 0.00582568 2.84453529 0.00882679 C3.83360939 0.00797237 4.82268348 0.00711794 5.84172952 0.00623763 C9.18296899 0.00457983 12.52415915 0.01010908 15.86539406 0.01555592 C18.24974768 0.01583775 20.63410139 0.01568013 23.01845497 0.01511341 C28.8383417 0.01485526 34.65821207 0.01920659 40.47809506 0.02555107 C47.24757627 0.03268499 54.01705511 0.03419496 60.78653955 0.03533924 C72.85970285 0.03753009 84.93285941 0.04419104 97.00601906 0.05364186 C108.73681298 0.06281514 120.46760508 0.06989638 132.19840187 0.07414967 C133.28228718 0.07454375 133.28228718 0.07454375 134.38806916 0.0749458 C138.01294376 0.0762508 141.63781837 0.07751452 145.26269299 0.0787577 C175.35414169 0.08913132 205.44558251 0.10682463 235.53702492 0.12908131 C235.73271065 0.91967945 235.92839638 1.7102776 236.13001198 2.52483326 C236.87054701 5.51283552 237.61277753 8.5004105 238.35608619 11.48772389 C238.83002379 13.39455357 239.30207852 15.30185093 239.77408546 17.20915943 C241.60395951 24.55758646 243.53537406 31.86099988 245.66202492 39.12908131 C247.68661372 46.07893742 249.59132937 53.04410358 251.34952492 60.06658131 C251.55658058 60.88964772 251.76363624 61.71271412 251.97696632 62.56072193 C253.00888591 66.73708394 253.83959876 70.88148824 254.53702492 75.12908131 C224.40450541 75.22041586 194.27199067 75.2911634 164.13936321 75.33334263 C160.57847613 75.3383452 157.01758932 75.34352251 153.45670265 75.34880787 C152.74782175 75.34985711 152.03894085 75.35090635 151.30857871 75.35198739 C139.84434922 75.36937234 128.38020032 75.40089943 116.91601857 75.43769249 C105.1446313 75.47515521 93.37328612 75.4973284 81.60184169 75.50543529 C74.99338773 75.51042174 68.38508342 75.5228719 61.77668518 75.55200154 C55.55263999 75.57921387 49.32885198 75.58751439 43.10475296 75.58151203 C40.82436547 75.58260965 38.54396911 75.59052853 36.26363319 75.60590321 C8.33494215 75.78492069 8.33494215 75.78492069 -2.46297508 65.12908131 C-10.74964275 55.14741344 -12.26617278 45.54082262 -11.09969383 32.96282154 C-10.70359155 28.98754215 -10.26352394 25.01773505 -9.80892235 21.04875904 C-9.52264665 18.54181243 -9.24715514 16.03383554 -8.97274071 13.52556568 C-8.79433613 11.93369787 -8.61532246 10.34189816 -8.43563133 8.75017506 C-8.3532975 7.99925083 -8.27096367 7.24832661 -8.18613487 6.4746471 C-7.40257903 -0.26716816 -6.74435489 0.01589204 0 0 Z " fill="#1EA4E8" transform="translate(51.46297508478165,436.8709186911583)"/>
<path d="M0 0 C2.04438665 0.01972909 4.08884602 0.03290283 6.13331604 0.03985596 C10.40806052 0.07032976 14.67740273 0.15221089 18.95043945 0.27636719 C24.40211596 0.43456951 29.85028981 0.50679183 35.3039999 0.54560471 C40.53646487 0.58568866 45.76809934 0.66500299 51 0.75 C51.98531645 0.76358299 52.9706329 0.77716599 53.98580742 0.79116058 C67.70494438 1.01911888 79.68223314 1.3953877 90.0625 11.44140625 C100.03873293 22.70113114 101.51077115 36.1951481 103.00170898 50.58422852 C103.25532182 53.02927227 103.52207783 55.47261442 103.79101562 57.91601562 C103.96039435 59.48689752 104.12904037 61.05785863 104.296875 62.62890625 C104.37495895 63.35088699 104.45304291 64.07286774 104.53349304 64.81672668 C104.94640916 68.83321527 105.06640625 72.64268747 105.06640625 76.703125 C46.65640625 76.703125 -11.75359375 76.703125 -71.93359375 76.703125 C-67.44457875 68.84734875 -67.44457875 68.84734875 -64.9375 65.75 C-64.38545898 65.05817627 -63.83341797 64.36635254 -63.26464844 63.65356445 C-62.68102539 62.92741943 -62.09740234 62.20127441 -61.49609375 61.453125 C-54.71574843 52.87614851 -48.48480861 44.00662004 -42.41357422 34.91796875 C-40.66368161 32.29919182 -38.89852098 29.69095406 -37.13110352 27.08398438 C-36.44552368 26.06014648 -36.44552368 26.06014648 -35.74609375 25.015625 C-35.00580933 23.93863342 -34.2655249 22.86164185 -33.50280762 21.75201416 C-31.74074719 19.09311566 -30.3095535 16.46082202 -29.0120697 13.54888916 C-22.42579097 -0.38832742 -14.42498353 -0.53475328 0 0 Z " fill="#44C767" transform="translate(354.93359375,295.296875)"/>
<path d="M0 0 C1.34458786 -0.05081726 1.34458786 -0.05081726 2.71633911 -0.10266113 C11.00140839 -0.39975048 19.28885337 -0.58038991 27.57788658 -0.72340965 C33.14222978 -0.82162423 38.69929954 -0.95940868 44.25976562 -1.19238281 C80.16526566 -2.65927292 80.16526566 -2.65927292 88.45681763 2.41885376 C93.13516603 7.15546994 95.35374933 12.40326326 97.24638367 18.69857788 C98.96146958 23.45750597 101.95853394 27.33029423 104.92431641 31.38427734 C106.01726278 32.95503973 107.10753046 34.52767304 108.19384766 36.10302734 C109.2073499 37.55151857 110.22161898 38.9994737 111.23681641 40.44677734 C111.66526855 41.06037109 112.0937207 41.67396484 112.53515625 42.30615234 C118.62420127 51.00968873 124.98998542 59.50010061 131.41210938 67.96020508 C132.03746582 68.78721924 132.66282227 69.6142334 133.30712891 70.46630859 C133.87189941 71.20985596 134.43666992 71.95340332 135.01855469 72.71948242 C136.23681641 74.44677734 136.23681641 74.44677734 136.23681641 75.44677734 C77.82681641 75.44677734 19.41681641 75.44677734 -40.76318359 75.44677734 C-40.09653295 64.78036707 -39.32452382 54.28267705 -38.01318359 43.69677734 C-37.86880859 42.39095703 -37.72443359 41.08513672 -37.57568359 39.73974609 C-35.920476 26.40464623 -32.16908285 15.39421198 -21.76318359 6.44677734 C-14.63661068 1.97075326 -8.35856617 0.28983909 0 0 Z " fill="#44C767" transform="translate(92.76318359375,296.55322265625)"/>
<path d="M0 0 C37.29 0 74.58 0 113 0 C114.45093491 8.70560945 115.69160831 17.26692423 116.54248047 26.02783203 C116.68124875 27.43020799 116.82680091 28.83192864 116.97900391 30.23291016 C118.20868434 41.5528163 118.7958196 51.31231746 111.8203125 60.83203125 C104.8056892 69.18635729 97.37359653 74.30696274 86.27171326 75.35041809 C81.978679 75.51018993 77.68905832 75.45109636 73.39453125 75.390625 C71.81842269 75.38314771 70.24230472 75.37746183 68.66618347 75.37347412 C64.55444848 75.35833457 60.44329516 75.31915678 56.33178711 75.2746582 C52.12166203 75.23345047 47.91144128 75.21540914 43.70117188 75.1953125 C35.4671835 75.15264843 27.23366448 75.08454271 19 75 C18.80693268 74.25016846 18.61386536 73.50033691 18.41494751 72.7277832 C17.52013992 69.25568026 16.62335948 65.78408962 15.7265625 62.3125 C15.42306885 61.13365234 15.1195752 59.95480469 14.80688477 58.74023438 C12.75388952 50.80017331 10.60563652 42.89191558 8.375 35 C6.23338766 27.40565901 4.10143206 19.8101741 2.0625 12.1875 C1.85093262 11.41083984 1.63936523 10.63417969 1.42138672 9.83398438 C0.51237908 6.40219042 0 3.57867576 0 0 Z " fill="#44C867" transform="translate(354,437)"/>
<path d="M0 0 C2.8356907 1.82181246 5.42560448 3.8273582 8 6 C8.59683594 6.47824219 9.19367188 6.95648438 9.80859375 7.44921875 C17.97620987 14.67091942 23.21655122 26.74279023 24.37109375 37.4375 C24.66315076 53.10549969 19.96710789 65.50966046 9.05859375 77.0546875 C-0.92749145 86.45572932 -13.86956699 90.69631821 -27.4140625 90.34375 C-40.36728462 89.10204679 -52.12250861 82.99241863 -61.078125 73.57421875 C-70.32666663 61.18643637 -73.14176674 48.67173907 -71.76171875 33.35546875 C-69.72274153 20.60671219 -62.54543526 9.98146898 -52.375 2.3125 C-36.13842906 -8.34886285 -17.1637689 -9.33146081 0 0 Z " fill="#FFFDFD" transform="translate(280,77)"/>
</svg>
